<svg width="520" height="320" viewBox="0 0 520 320" fill="none" xmlns="http://www.w3.org/2000/svg">
  <defs>
    <linearGradient id="dedupBg" x1="42" y1="16" x2="472" y2="300" gradientUnits="userSpaceOnUse">
      <stop stop-color="#1F35FF"/>
      <stop offset="1" stop-color="#00CDC3"/>
    </linearGradient>
    <linearGradient id="dedupPanel" x1="100" y1="62" x2="414" y2="256" gradientUnits="userSpaceOnUse">
      <stop stop-color="#FFFFFF" stop-opacity="0.97"/>
      <stop offset="1" stop-color="#EBF4FF" stop-opacity="0.99"/>
    </linearGradient>
  </defs>
  <rect x="8" y="8" width="504" height="304" rx="34" fill="url(#dedupBg)"/>
  <rect x="10" y="10" width="500" height="300" rx="32" stroke="white" stroke-opacity="0.24" stroke-width="2"/>
  <rect x="92" y="56" width="336" height="208" rx="28" fill="url(#dedupPanel)"/>
  <rect x="118" y="84" width="206" height="154" rx="16" fill="#F0F6FF"/>
  <rect x="138" y="108" width="152" height="10" rx="5" fill="#C5D8FC"/>
  <rect x="138" y="126" width="144" height="10" rx="5" fill="#C5D8FC"/>
  <rect x="138" y="144" width="128" height="10" rx="5" fill="#C5D8FC"/>
  <rect x="138" y="162" width="152" height="10" rx="5" fill="#C5D8FC"/>
  <path d="M136 171L290 109" stroke="#FB7070" stroke-width="4" stroke-linecap="round" opacity="0.9"/>
  <circle cx="360" cy="124" r="26" fill="#E8F2FF"/>
  <path d="M348 124H372M348 136H366" stroke="#2965E5" stroke-width="5.2" stroke-linecap="round"/>
  <circle cx="360" cy="188" r="26" fill="#E0FFF7"/>
  <path d="M350 188L357 195L371 181" stroke="#108DA2" stroke-width="5.2" stroke-linecap="round" stroke-linejoin="round"/>
</svg>
