<svg width="520" height="320" viewBox="0 0 520 320" fill="none" xmlns="http://www.w3.org/2000/svg">
  <defs>
    <linearGradient id="defenseBg" x1="58" y1="6" x2="460" y2="298" gradientUnits="userSpaceOnUse">
      <stop stop-color="#1A32FF"/>
      <stop offset="1" stop-color="#00D3D9"/>
    </linearGradient>
    <linearGradient id="defensePanel" x1="108" y1="62" x2="413" y2="251" gradientUnits="userSpaceOnUse">
      <stop stop-color="#FFFFFF" stop-opacity="0.97"/>
      <stop offset="1" stop-color="#E7F0FF" stop-opacity="0.99"/>
    </linearGradient>
    <linearGradient id="screenLine" x1="138" y1="106" x2="369" y2="222" gradientUnits="userSpaceOnUse">
      <stop stop-color="#2A6BFF"/>
      <stop offset="1" stop-color="#00BAC6"/>
    </linearGradient>
  </defs>
  <rect x="8" y="8" width="504" height="304" rx="34" fill="url(#defenseBg)"/>
  <rect x="10" y="10" width="500" height="300" rx="32" stroke="white" stroke-opacity="0.24" stroke-width="2"/>
  <circle cx="105" cy="72" r="40" fill="white" fill-opacity="0.14"/>
  <circle cx="425" cy="248" r="56" fill="white" fill-opacity="0.12"/>
  <rect x="86" y="54" width="348" height="212" rx="28" fill="url(#defensePanel)"/>
  <rect x="112" y="80" width="296" height="124" rx="18" fill="#F3F7FF"/>
  <path d="M138 176C176 144.667 206 141 240 151C274 161 302 147 336 118L372 96" stroke="url(#screenLine)" stroke-width="7" stroke-linecap="round"/>
  <circle cx="372" cy="96" r="9" fill="#1E5FFF"/>
  <rect x="132" y="220" width="114" height="26" rx="13" fill="#E3ECFF"/>
  <rect x="256" y="220" width="132" height="26" rx="13" fill="#D6FFF7"/>
  <g opacity="0.94">
    <circle cx="384" cy="170" r="30" fill="#FFFFFF"/>
    <path d="M384 154L394 160V172C394 179 388 184 384 186C380 184 374 179 374 172V160L384 154Z" fill="#1C54E5"/>
    <path d="M379 170L383 174L390 166" stroke="white" stroke-width="3.5" stroke-linecap="round" stroke-linejoin="round"/>
  </g>
</svg>
